<svg width="50" height="50" viewBox="0 0 50 50" fill="none" xmlns="http://www.w3.org/2000/svg">
<g clip-path="url(#clip0_2875_1811)">
<path d="M3.40846 50.0003H11.3616V30.6856L6.15376 21.5918L0 22.1644V46.5918C0 48.475 1.52531 50.0003 3.40846 50.0003Z" fill="#0085F7"/>
<path d="M38.6289 50.0003H46.582C48.4652 50.0003 49.9905 48.475 49.9905 46.5918V22.1644L43.8456 21.5918L38.629 30.6856V50.0003H38.6289Z" fill="#00A94B"/>
<path d="M38.6287 15.9157L33.957 24.8303L38.6287 30.6857L49.9903 22.1645V17.6199C49.9903 13.4076 45.1815 11.0018 41.81 13.5298L38.6287 15.9157Z" fill="#FFBC00"/>
<path fill-rule="evenodd" clip-rule="evenodd" d="M11.3618 30.6861L6.91016 21.2825L11.3618 15.916L24.9956 26.1414L38.6294 15.916V30.6861L24.9956 40.9114L11.3618 30.6861Z" fill="#FF4131"/>
<path d="M0 17.6199V22.1645L11.3616 30.6857V15.9157L8.18034 13.5298C4.80879 11.0018 0 13.4076 0 17.6199Z" fill="#E51C19"/>
</g>
<defs>
<clipPath id="clip0_2875_1811">
<rect width="50" height="50" fill="white"/>
</clipPath>
</defs>
</svg>
